<?xml version="1.0" encoding="utf-8"?><svg xmlns="http://www.w3.org/2000/svg" xmlns:xlink="http://www.w3.org/1999/xlink"><symbol viewBox="0 0 22 22" id="cart-icon" xmlns="http://www.w3.org/2000/svg"><g clip-path="url(#aa)"><path d="M8.25 20.167a.917.917 0 1 0 0-1.834.917.917 0 0 0 0 1.834ZM18.333 20.167a.917.917 0 1 0 0-1.834.917.917 0 0 0 0 1.834ZM.917.917h3.666L7.04 13.19a1.833 1.833 0 0 0 1.833 1.476h8.91a1.833 1.833 0 0 0 1.834-1.476L21.083 5.5H5.5"/></g><defs><clipPath id="aa"><path d="M0 0h22v22H0z"/></clipPath></defs></symbol><symbol viewBox="0 0 24 24" id="facebook" xmlns="http://www.w3.org/2000/svg"><g clip-path="url(#ba)"><path d="M15.402 21v-6.966h2.333l.349-2.708h-2.682V9.598c0-.784.218-1.319 1.342-1.319h1.434V5.857a19.188 19.188 0 0 0-2.09-.107c-2.067 0-3.482 1.262-3.482 3.58v1.996h-2.338v2.708h2.338V21H4a1 1 0 0 1-1-1V4a1 1 0 0 1 1-1h16a1 1 0 0 1 1 1v16a1 1 0 0 1-1 1h-4.598Z"/></g><defs><clipPath id="ba"><path d="M0 0h24v24H0z"/></clipPath></defs></symbol><symbol viewBox="0 0 24 24" id="instagram" xmlns="http://www.w3.org/2000/svg"><g clip-path="url(#ca)"><path d="M12 2c2.717 0 3.056.01 4.122.06 1.065.05 1.79.217 2.428.465.66.254 1.216.598 1.772 1.153.509.5.902 1.105 1.153 1.772.247.637.415 1.363.465 2.428.047 1.066.06 1.405.06 4.122 0 2.717-.01 3.056-.06 4.122-.05 1.065-.218 1.79-.465 2.428a4.883 4.883 0 0 1-1.153 1.772c-.5.508-1.105.902-1.772 1.153-.637.247-1.363.415-2.428.465-1.066.047-1.405.06-4.122.06-2.717 0-3.056-.01-4.122-.06-1.065-.05-1.79-.218-2.428-.465a4.89 4.89 0 0 1-1.772-1.153 4.904 4.904 0 0 1-1.153-1.772c-.248-.637-.415-1.363-.465-2.428C2.013 15.056 2 14.717 2 12c0-2.717.01-3.056.06-4.122.05-1.066.217-1.79.465-2.428a4.88 4.88 0 0 1 1.153-1.772A4.897 4.897 0 0 1 5.45 2.525c.638-.248 1.362-.415 2.428-.465C8.944 2.013 9.283 2 12 2Zm0 5a5 5 0 1 0 0 10 5 5 0 0 0 0-10Zm6.5-.25a1.25 1.25 0 1 0-2.5 0 1.25 1.25 0 0 0 2.5 0ZM12 9a3 3 0 1 1 0 6 3 3 0 0 1 0-6Z"/></g><defs><clipPath id="ca"><path d="M0 0h24v24H0z"/></clipPath></defs></symbol><symbol viewBox="0 0 143 35" id="logo" xmlns="http://www.w3.org/2000/svg"><path d="m17.5 0 2.465 9.104 6.996-6.326-2.848 8.992 9.306-1.54-7.258 6.025 8.66 3.736-9.362 1.144 5.267 7.825-8.495-4.099.2 9.43L17.5 26.25l-4.93 8.041.2-9.43-8.496 4.1 5.267-7.826L.178 19.99l8.661-3.735-7.258-6.025 9.306 1.54L8.04 2.778l6.996 6.326L17.5 0ZM44.48 25V10.8h2.76V25h-2.76Zm15.203 0h-2.68v-5.88c0-.84-.147-1.453-.44-1.84-.294-.387-.7-.58-1.22-.58-.36 0-.727.093-1.1.28-.36.187-.687.447-.98.78-.294.32-.507.693-.64 1.12V25h-2.68V14.52h2.42v1.94c.386-.653.946-1.167 1.68-1.54.733-.387 1.56-.58 2.48-.58.653 0 1.186.12 1.6.36.413.227.733.54.96.94.226.387.38.827.46 1.32.093.493.14.993.14 1.5V25Zm9.49 0-3.06-4.52-1.42 1.4V25h-2.68V10.4h2.68v8.84l4.22-4.7h2.84l-3.9 4.44 4.18 6.02h-2.86Zm3.932 0v-2.88h2.2V25h-2.2Zm21.557-14.2V25h-2.74v-6.06h-6.44V25h-2.76V10.8h2.76v5.74h6.44V10.8h2.74Zm7.367 14.4c-1.147 0-2.134-.247-2.96-.74a5.204 5.204 0 0 1-1.88-2 5.617 5.617 0 0 1-.66-2.68c0-.973.22-1.873.66-2.7a5.208 5.208 0 0 1 1.9-1.98c.826-.507 1.806-.76 2.94-.76 1.133 0 2.106.253 2.92.76a5.023 5.023 0 0 1 1.9 1.98c.44.827.66 1.727.66 2.7 0 .96-.22 1.853-.66 2.68a5.164 5.164 0 0 1-1.9 2c-.814.493-1.787.74-2.92.74Zm-2.74-5.42c0 .613.12 1.16.36 1.64a2.8 2.8 0 0 0 .98 1.1c.413.267.88.4 1.4.4.506 0 .966-.133 1.38-.4.413-.28.74-.653.98-1.12.253-.48.38-1.027.38-1.64 0-.6-.127-1.133-.38-1.6a2.777 2.777 0 0 0-.98-1.12 2.41 2.41 0 0 0-1.38-.42c-.52 0-.987.14-1.4.42a2.77 2.77 0 0 0-.98 1.12c-.24.467-.36 1.007-.36 1.62Zm9.929 1.3v-6.56h2.68v5.98c0 1.613.58 2.42 1.74 2.42.52 0 1.02-.153 1.5-.46.493-.32.893-.8 1.2-1.44v-6.5h2.68V22c0 .293.046.5.14.62.093.107.26.173.5.2V25a5.622 5.622 0 0 1-1.16.12c-.48 0-.874-.107-1.18-.32a1.344 1.344 0 0 1-.52-.92l-.06-.84a4.47 4.47 0 0 1-1.8 1.62c-.734.36-1.54.54-2.42.54-1.08 0-1.9-.347-2.46-1.04-.56-.707-.84-1.733-.84-3.08Zm16.323 4.12a7.488 7.488 0 0 1-2.56-.44 5.761 5.761 0 0 1-2.1-1.3l.96-1.74c.627.507 1.24.88 1.84 1.12.6.24 1.187.36 1.76.36.52 0 .933-.093 1.24-.28a.912.912 0 0 0 .48-.84c0-.387-.193-.647-.58-.78a28.408 28.408 0 0 0-1.62-.54c-.773-.24-1.42-.487-1.94-.74s-.913-.56-1.18-.92c-.253-.36-.38-.827-.38-1.4 0-1.027.387-1.847 1.16-2.46.773-.613 1.8-.92 3.08-.92.747 0 1.453.12 2.12.36.667.227 1.273.6 1.82 1.12l-1.08 1.7c-1.027-.8-2.02-1.2-2.98-1.2a2.6 2.6 0 0 0-1.14.24c-.32.16-.48.44-.48.84 0 .373.153.64.46.8.32.16.8.333 1.44.52.827.253 1.527.5 2.1.74.587.24 1.027.547 1.32.92.307.373.46.88.46 1.52 0 1.04-.38 1.853-1.14 2.44-.76.587-1.78.88-3.06.88Zm10.883 0c-1.134 0-2.114-.247-2.94-.74a5.244 5.244 0 0 1-1.9-1.96 5.478 5.478 0 0 1-.68-2.68c0-.987.22-1.893.66-2.72a5.12 5.12 0 0 1 1.92-2c.826-.507 1.813-.76 2.96-.76 1.146 0 2.126.253 2.94.76a4.923 4.923 0 0 1 1.86 1.98c.44.813.66 1.693.66 2.64 0 .347-.02.647-.06.9h-8.1c.066.813.366 1.453.9 1.92a2.81 2.81 0 0 0 1.88.7c.533 0 1.033-.127 1.5-.38.48-.267.806-.613.98-1.04l2.3.64c-.387.8-1.007 1.46-1.86 1.98-.854.507-1.86.76-3.02.76Zm-2.74-6.28h5.48c-.08-.787-.38-1.42-.9-1.9-.507-.493-1.127-.74-1.86-.74-.72 0-1.34.247-1.86.74-.507.48-.794 1.113-.86 1.9Z"/></symbol><symbol viewBox="0 0 80 79" id="star-icon" xmlns="http://www.w3.org/2000/svg"><path d="m44.187 21.202.64 2.361 1.814-1.64 11.88-10.744-4.836 15.271-.739 2.332 2.413-.4 15.805-2.614L58.838 36l-1.882 1.563 2.246.968 14.71 6.345-15.901 1.943-2.429.297 1.366 2.03 8.944 13.29-14.427-6.961-2.203-1.064.051 2.445.34 16.017-8.375-13.657L40 57.13l-1.278 2.086-8.375 13.657.34-16.017.051-2.445-2.203 1.064-14.428 6.96 8.945-13.29 1.366-2.029-2.429-.297-15.901-1.943 14.71-6.345 2.246-.968L21.162 36 8.835 25.768l15.806 2.615 2.413.4-.739-2.333-4.838-15.271L33.36 21.923l1.815 1.64.64-2.36L40 5.74l4.187 15.462Z"/></symbol><symbol viewBox="0 0 24 24" id="youtube" xmlns="http://www.w3.org/2000/svg"><g clip-path="url(#fa)"><path d="M21.543 6.498C22 8.28 22 12 22 12s0 3.72-.457 5.502c-.254.985-.997 1.76-1.938 2.022C17.896 20 12 20 12 20s-5.893 0-7.605-.476c-.945-.266-1.687-1.04-1.938-2.022C2 15.72 2 12 2 12s0-3.72.457-5.502c.254-.985.997-1.76 1.938-2.022C6.107 4 12 4 12 4s5.896 0 7.605.476c.945.266 1.687 1.04 1.938 2.022ZM10 15.5l6-3.5-6-3.5v7Z"/></g><defs><clipPath id="fa"><path d="M0 0h24v24H0z"/></clipPath></defs></symbol></svg>